<svg xmlns="http://www.w3.org/2000/svg" xmlns:xlink="http://www.w3.org/1999/xlink" width="2206" height="1281" viewBox="0 0 2206 1281"><defs><clipPath id="b"><rect width="2206" height="1281"/></clipPath></defs><g id="a" clip-path="url(#b)"><g transform="translate(145.701 56.572)"><path d="M-10479.99,2606.153c-41.59-14.869-93.8-21.323-143.786-16.991s-81.176,16.991-81.176,16.991-59.467,48.14-183.12,0-187.84-169.905-187.84-169.905-17.936-54.748-118.934-65.13-152.913,46.252-152.913,46.252-79.289,57.579-51.916,138.756,70.794,41.532,70.794,41.532,30.205-22.654,10.383-47.2-50.972-5.664-50.972-5.664-29.261,20.766-30.205,73.625-57.58,110.438-57.58,110.438l-38.7,41.532s-54.394,65.885-17.4,123.344" transform="translate(11945 -1670)" fill="none" stroke="#2e3336" stroke-linecap="round" stroke-width="2" stroke-dasharray="10"/><path d="M-10425.466,2140.845s2.817-39.659,43.469-70.064,75.683-34.7,98.156-64.115,89.895-81.631,144.095-82.953,116-96.834,116-96.834,83.578-123.005,0-212.405" transform="translate(11945 -1670)" fill="none" stroke="#2e3336" stroke-linecap="round" stroke-width="2" stroke-dasharray="10"/><path d="M-11331.418,2403.532s-40.056,21.673-88.175,4.917-50.269-14.178-96.669-56.283-123.735,0-123.735,0-30.076,16.864-60.15,51.664-39.1,38.238-39.1,38.238-13.319,13.319-53.705,24.06-73.9-5.585-73.9-5.585-55.208-28.463-63.8-81.309-21.053-75.617-21.053-75.617-9.326-47.519-65.11-94.647-73.1-37.51-73.1-37.51" transform="translate(11945 -1670)" fill="none" stroke="#2e3336" stroke-linecap="round" stroke-width="2" stroke-dasharray="10"/><path d="M-11532.183,2340.3s-18.838-11.567-20.821-33.049.331-36.685,20.821-58.5,36.354-69.073,5.618-123.935-88.819-48.748-88.819-48.748-108.071,13.881-143.1-102.122,46.435-188.793,46.435-188.793,59.158-60.15,187.389-43.956,174.5,55.523,174.5,55.523,46.765,37.759,51.722,104.848,30.405,140.79,171.525,105.757" transform="translate(11945 -1670)" fill="none" stroke="#2e3336" stroke-linecap="round" stroke-width="2" stroke-dasharray="10"/><path d="M-10546.61,2387.3c84.338-121.76,109.472-179.428,109.472-179.428s58.088-139.633-84.9-231.232-319.479-32.395-319.479-32.395-235.709,62.59-280.953,62.59" transform="translate(11945 -1670)" fill="none" stroke="#2e3336" stroke-linecap="round" stroke-width="2" stroke-dasharray="10"/><path d="M-10541.679,2379.936l-21.16,33.732s-12.54,38.849-1.369,84.09,11.733,86.149,120.088,123.012,263.627-48.592,283.176-108.914-27.368-97.743-27.368-97.743-125.111-118.967-53.061-193.252,216.373-34.629,216.373-34.629,50.172,13.889,139.588,51.976" transform="translate(11945 -1670)" fill="none" stroke="#2e3336" stroke-linecap="round" stroke-width="2" stroke-dasharray="10"/><g transform="matrix(0.966, -0.259, 0.259, 0.966, 620.316, 200.924)"><path d="M29.783,28.256c-1.629-4.56-1.984-8.558-7.4-6.633h0a7.954,7.954,0,0,1-2.754.5H13.554a8.709,8.709,0,0,1-2.754-.5h0c-5.39-1.925-5.775,2.1-7.4,6.633-1.629,4.56-.948,8.943,1.54,9.832,1.984.711,4.531-1.1,6.308-4.235a2.723,2.723,0,0,0,1.214.3A2.768,2.768,0,0,0,15.213,31.4H18a2.768,2.768,0,0,0,2.754,2.754,2.824,2.824,0,0,0,1.214-.3c1.718,3.109,4.264,4.945,6.248,4.235C30.7,37.2,31.382,32.817,29.783,28.256Zm-6.041-4.324A1.036,1.036,0,1,1,22.7,24.969,1.049,1.049,0,0,1,23.741,23.933ZM21.7,25.976a1.036,1.036,0,1,1-1.036,1.036A1.049,1.049,0,0,1,21.7,25.976Zm-12.763,3.7a.2.2,0,0,1-.207-.207V27.842H7.1a.229.229,0,0,1-.237-.207V26.42a.211.211,0,0,1,.237-.207H8.727V24.584a.2.2,0,0,1,.207-.207h1.214a.2.2,0,0,1,.207.207v1.629h1.629a.229.229,0,0,1,.237.207V27.6a.211.211,0,0,1-.237.207H10.356v1.629a.2.2,0,0,1-.207.207H8.935ZM12.429,32.7a1.288,1.288,0,0,1,0-2.576,1.288,1.288,0,1,1,0,2.576Zm6.989-1.3a1.283,1.283,0,0,1,1.273-1.273A1.288,1.288,0,1,1,19.418,31.4Zm4.324-1.333a1.036,1.036,0,1,1,1.036-1.036A1.049,1.049,0,0,1,23.741,30.063Zm2.043-2.043a1.036,1.036,0,1,1,1.036-1.036A1.049,1.049,0,0,1,25.785,28.02Z" transform="translate(0 0)" fill="#3f4a3d"/></g><g transform="translate(505.446 813.485)"><path d="M58.386,17.124c.784,1.055,1.538,2.08,2.322,3.136h.03c0-.06-.03-.121-.03-.181-.181-.633-.362-1.236-.543-1.869A.756.756,0,0,0,60.044,18c-.6-.814-1.236-1.6-1.839-2.412a.421.421,0,0,1-.09-.271,17.9,17.9,0,0,1,.452-5.216c.06-.3.151-.6.181-.9a1.318,1.318,0,0,1,.392-.724c.6-.573,1.176-1.146,1.749-1.719a.631.631,0,0,1,.181-.121c1.719-.724,3.407-1.447,5.126-2.2.03,0,.06-.03.121-.03V16.068c0,1.025-.09,2.08-.181,3.106-.09,1.055-.211,2.141-.362,3.166a31.576,31.576,0,0,1-1.809,6.814,32.582,32.582,0,0,1-1.538,3.286c-.633-1.055-1.266-2.171-1.96-3.2s-1.508-2.02-2.261-3.015c.573-.663,1.176-1.357,1.779-2.05.6,1.146,1.176,2.261,1.749,3.377.03,0,.03,0,.06-.03-.03-.241-.06-.482-.09-.693l-.181-1.085c-.03-.09-.06-.211-.09-.3a34.917,34.917,0,0,1-1.96-4.492c-.362-1.146-.663-2.322-.995-3.5A2.446,2.446,0,0,1,58.386,17.124Z" transform="translate(-26.611 0)" fill="#3f4a3d"/><path d="M31.232,37.7a29.577,29.577,0,0,1,2.744,3.648c-.422-.211-.814-.422-1.236-.633L29.755,39.18a.984.984,0,0,1-.513-.633c-.362-1.387-.724-2.774-1.116-4.161a.538.538,0,0,0-.271-.362c-1.3-.724-2.563-1.477-3.829-2.231a2.046,2.046,0,0,1-1.055-1.628c-.121-1.025-.241-2.08-.392-3.136-.3.241-.633.362-.784.784-.332,1.055-.724,2.08-1.085,3.106a.918.918,0,0,1-.271.392.33.33,0,0,1-.332.03.35.35,0,0,1-.121-.3c.09-.784.241-1.568.362-2.352.06-.452.151-.874.211-1.327a.326.326,0,0,1,.09-.211l2.774-2.864a1.618,1.618,0,0,1,.965-.392c1.417-.332,2.834-.633,4.251-.935a.863.863,0,0,0,.633-.482c.452-.844.935-1.688,1.417-2.533a.759.759,0,0,1,.754-.452v.121c-.362,1.206-.754,2.412-1.116,3.618a.822.822,0,0,1-.392.452c-1.327.693-2.683,1.387-4.01,2.08a.712.712,0,0,0-.241.271c-.151.271-.3.573-.452.874a.742.742,0,0,0,.09.784.587.587,0,0,0,.663.241l.452-.09c1.266-.332,2.563-.663,3.829-.965.362-.09.452-.03.573.332.422,1.538.844,3.045,1.3,4.583a11.175,11.175,0,0,0,.573,1.387,1.47,1.47,0,0,1,.09.211c-.482-.211-.9-.392-1.327-.6a.385.385,0,0,1-.151-.211c-.543-1.146-1.116-2.322-1.658-3.467-.06-.09-.09-.211-.181-.332-1.116.513-2.231.995-3.407,1.508a2.465,2.465,0,0,0,.241.271L29.3,33.18a1.449,1.449,0,0,1,.573,1.085c.151,1.236.332,2.472.513,3.709a.582.582,0,0,0,.09.3c.392.452.784.9,1.206,1.357A17.619,17.619,0,0,0,31.232,37.7Z" transform="translate(0 -10.538)" fill="#3f4a3d"/><path d="M32.427,23.8a1.282,1.282,0,1,1-.03,2.563,1.327,1.327,0,0,1-1.3-1.3A1.27,1.27,0,0,1,32.427,23.8Z" transform="translate(-7.767 -13.551)" fill="#3f4a3d"/></g><g transform="translate(400.803 526.586)"><path d="M41.832,33.98a1.335,1.335,0,0,1-.507-.423,6.275,6.275,0,0,0,.127-2.664,6.5,6.5,0,0,0-6.426-5.5,8.21,8.21,0,0,0-1.015.085,7.044,7.044,0,0,0-1.268.338l-2.283-4.566,3-.55-.211-1.268-1.015.169c-.888-.465-2.452-1.057-3.129-1.353-.676-.338-.338-.381-1.9-1.268a8.749,8.749,0,0,1,2.325-2.664c.254-.634-.085-1.733.634-1.945.169-.042.634-.3.846-.338a1.161,1.161,0,0,0,.719.423c.254-.042.55-.169,1.649-.972.211-.93.254-.8.338-1.226a9.89,9.89,0,0,0,1.353.3.509.509,0,0,0,.211-.211c-.55-2.325-1.776-3.932-4.566-3.763a2.055,2.055,0,0,0-.761,1.522c0,.211.211.3.211.507A2.391,2.391,0,0,1,29.824,9.8a1.336,1.336,0,0,1-1.1.338c-.254-.042-.381-.465-2.2-.169-2.452.423-3.467,3.34-6.426,5.665A3.832,3.832,0,0,0,19.044,18.8c.169.93.888,1.522,1.142,2.537.254.888,1.437,3.425,1.4,3.89a1.087,1.087,0,0,1-.3.507l-1.48.719L17.564,23.2q.824-.127,2.029-.254h0s.254-.338.127-.592a.5.5,0,0,0-.465-.211h-1.4c-.423,0-.888.042-1.268.042a5.45,5.45,0,0,1-.972-.042,1.076,1.076,0,0,1-.3-.085,2.222,2.222,0,0,0-.719-.169.486.486,0,0,0-.465.254c-.254.507.254,1.48.634,1.86.042,0,.042.042.085.042h0a.973.973,0,0,0,.381-.127c.211-.085.465-.169.846-.3l2.621,3.89-1.268,1.9a6.216,6.216,0,0,0-3.932-.592,6.193,6.193,0,0,0-5.412,7.272,6.5,6.5,0,0,0,6.426,5.5c.338,0,19.533.085,27.312,0ZM34.264,27a4.6,4.6,0,0,1,.761-.042A4.876,4.876,0,0,1,39.887,31.1a5.119,5.119,0,0,1,0,1.607c-.127,0-.254.042-.423.042a2.062,2.062,0,0,0,.254.55,4.678,4.678,0,0,1-.507,1.142,1.181,1.181,0,0,1-.761-.634c-.211.55-.465,1.142-.465,1.142l-1.607,1.1-3.129.423a4.79,4.79,0,0,1-3.086-3.847,4.938,4.938,0,0,1,2.029-4.777L33.8,31.063a1.32,1.32,0,0,0-.211,1.057,1.5,1.5,0,0,0,1.48,1.268h.211A1.48,1.48,0,0,0,36.5,31.7a1.531,1.531,0,0,0-1.437-1.268L33.5,27.257A2.021,2.021,0,0,1,34.264,27ZM21.242,33.346h0a8.924,8.924,0,0,1-.634-.634,8.885,8.885,0,0,0-.55-1.1c.211-.338.592-1.015.761-1.268l1.564,2.283a2.424,2.424,0,0,0-.169.592Zm-5.327.8,1.86-2.748a3.379,3.379,0,0,1,.55.55,1.832,1.832,0,0,0-.592,1.015c.042.042.592.338,1.268.719Zm9.048-8.583a10,10,0,0,0-.761,2.325,24.063,24.063,0,0,1-.338,3.509,2.383,2.383,0,0,0-.507.169l-1.733-2.537a33.737,33.737,0,0,1,2.2-2.959Zm.423,5.285a24.677,24.677,0,0,1,1.268-3.89c.423-.93.93-1.776.846-2.029a2.061,2.061,0,0,0-.169-.465l2.241-1.057Zm-.465-13.7c-.211.634.3.846,1.945,1.987,1.987.761,1.057.381,2.579.972l-1.142.127.972,1.691-2.41,1.142a14.015,14.015,0,0,0-3.044-4.862C24.582,17.533,24.624,17.28,24.92,17.153Zm-1.015,6.68c.127.042.254.169.465.423l-.381.169A2.056,2.056,0,0,1,23.906,23.833Zm-4.4,4.9c-.169.55-.381,1.1-.507,1.607-.127-.127-.254-.211-.338-.3ZM14.52,40.026a4.876,4.876,0,0,1-4.862-4.143,4.971,4.971,0,0,1,4.1-5.623,4.342,4.342,0,0,1,2.79.381l-2.029,3h-.254a1.48,1.48,0,0,0-1.226,1.691A1.5,1.5,0,0,0,14.52,36.6h.211a1.483,1.483,0,0,0,1.184-.972l3.509-.55a5.015,5.015,0,0,1-.93,2.959A4.629,4.629,0,0,1,14.52,40.026Zm9.639-2.452c-.634.042-.127.634-.3.93-1.564.169-3.594.55-3.594.3-.211.127-.423.254-.676.381a6.018,6.018,0,0,0,1.4-4.355h.042c.338.211.592.338.592.338s.3-.3.3-.465h0l.381-.042a2.179,2.179,0,0,0,1.945,1.184,1.992,1.992,0,0,0,1.818-.93,2.8,2.8,0,0,0,.381-.8c.254-.042,1.015-.085,1.015-.085.042-.211-.211-.8-1.015-.93a2.154,2.154,0,0,0-.3-.719L30.5,24.594l.93,1.9A6.511,6.511,0,0,0,31.3,37.32,7.98,7.98,0,0,1,29.7,38C27.922,37.785,26.146,37.658,24.159,37.573Z" transform="translate(0 0)" fill="#3f4a3d"/></g><g transform="translate(374.512 406.092)"><circle cx="2.655" cy="2.655" r="2.655" transform="translate(9.593 0.5)" fill="#3f4a3d"/><path d="M19.509,20.34S16.924,10.172,16.718,9.382a2.124,2.124,0,0,0-3.153-1.417c-1.684.707-3.556,4.267-3.556,4.267H6.259V9.35a.678.678,0,1,0-1.356,0v2.882a1.017,1.017,0,1,0,0,2.034V27.032a.678.678,0,0,0,1.356,0V14.266h4.18a1.015,1.015,0,0,0,.73-.31l.952-.983a21.282,21.282,0,0,0,1.06,3.119l-2.665,3.777a1.358,1.358,0,0,0-.248.781v5.705a1.356,1.356,0,0,0,2.712,0V21.079a24.538,24.538,0,0,1,2.62-2.572,16.584,16.584,0,0,1,1.317,2.651,1.314,1.314,0,0,0,.126.323L20.05,27a1.356,1.356,0,1,0,2.382-1.3Z" transform="translate(0 -1.394)" fill="#3f4a3d"/><path d="M27.329,9.454,26.291,5.577a.677.677,0,0,0-.83-.479L20.506,6.424a.678.678,0,0,0-.48.83l2.135,7.966a.677.677,0,0,0,.83.479l3.1-.829a.678.678,0,0,0,.479-.83l-.92-3.433,1.2-.321A.678.678,0,0,0,27.329,9.454Z" transform="translate(-3.115 -0.884)" fill="#3f4a3d"/></g><g transform="translate(467.076 709.021)"><path d="M38.966,59.69l-.1.249Z" transform="translate(-25.872 -47.491)" fill="none"/><path d="M38.66,60.88Z" transform="translate(-25.742 -48.224)" fill="none"/><path d="M11.064,42.143A4.837,4.837,0,0,1,9.738,41.1a3.5,3.5,0,0,1-.7-1.637A7.494,7.494,0,0,0,7.71,41.844a1.15,1.15,0,0,1,.383-.126,1.292,1.292,0,0,1,.215,0,3.224,3.224,0,0,1,1.414.5,4.032,4.032,0,0,0,1.882.617,2.4,2.4,0,0,0,.356-.027,3.339,3.339,0,0,0-.9-.663Z" transform="translate(-6.656 -35.015)" fill="none"/><path d="M35.919,47.8,36,47.744l.119-.077a8.614,8.614,0,0,0,.993-.652h0a5.531,5.531,0,0,0,1.917-2.584l-1.583-.606-.272-.1-.192-.073h0a.583.583,0,0,0-.061.134l-.023.057-.035.073-.057.123-.069.13-.027.054a3.7,3.7,0,0,1-.675.916l-.134.123-.13.084h0q-.132.109-.276.207h0l-.13.088h-.023l-.115.073-.046.031-.1.061L35,45.85l-.08.05-.126.077a6.447,6.447,0,0,0-.981.736h0c-.092.084-.184.176-.276.268l-.073.088q-.138.146-.276.307h0c-.092.107-.18.218-.264.337h0a7.42,7.42,0,0,0-.475.724h0q-.1.165-.184.341l-.031.061q-.077.153-.149.318l-.034.073c-.054.126-.107.253-.161.383l2.6.613a15.042,15.042,0,0,1,.625-1.533l.05-.092.031-.054a2.614,2.614,0,0,1,.7-.767Z" transform="translate(-21.567 -37.599)" fill="none"/><path d="M47.131,47.284l-.157-.061-.061-.023h0a.579.579,0,0,0-.061.146l-.023.057-.05.1-.057.123-.054.107-.031.054c-.042.08-.088.157-.134.234l-.008.015a3.7,3.7,0,0,1-.3.414l-.05.057-.157.146q-.121.115-.241.218l-.054.042-.169.13c-.245.18-.51.341-.79.51a9.262,9.262,0,0,0-.985.644h0a5.531,5.531,0,0,0-1.917,2.6l1.215.272.287.061.977.2.115.023h.027a2.435,2.435,0,0,0,.1-.272A5.846,5.846,0,0,1,45,52.141l.034-.054.023-.034.088-.119h0a2.077,2.077,0,0,1,.3-.291h0l.092-.073.05-.035h0c.123-.088.264-.176.433-.28a8.284,8.284,0,0,0,1.568-1.15h0a5.547,5.547,0,0,0,1.257-1.832h0c.038-.092.077-.184.115-.28l-1.583-.606Z" transform="translate(-27.697 -39.788)" fill="none"/><path d="M90.82,52.64Z" transform="translate(-57.909 -43.143)" fill="#3f4a3d"/><path d="M94.28,56Z" transform="translate(-60.042 -45.215)" fill="#3f4a3d"/><path d="M39.238,38.645a3.178,3.178,0,0,0-.874-.974l.031.019-.031-.019L38.13,37.5l.234.176a3.308,3.308,0,0,0-1.15-.464,11.882,11.882,0,0,0-1.533-.23,28.338,28.338,0,0,1-3.132-.353,2.975,2.975,0,0,1-.675-.207,6.106,6.106,0,0,1-.732-.456,5.006,5.006,0,0,0-.828-.464,4.527,4.527,0,0,0-.928-.257c-.337-.065-.675-.115-1.008-.192a6.738,6.738,0,0,1-.947-.3,15.958,15.958,0,0,1-1.786-.836c-1.173-.629-2.3-1.357-3.423-2.062a7.222,7.222,0,0,0-1.618-.874,2.488,2.488,0,0,1-.767-.36,5.083,5.083,0,0,1-.563-.483,9.437,9.437,0,0,0-2.239-2.078,2.446,2.446,0,0,0-2.879.79,1.533,1.533,0,0,0-.345,1.192,1.917,1.917,0,0,0,.494.981c.491.556,1.177.912,1.641,1.491a1.1,1.1,0,0,1,.272.832,1.016,1.016,0,0,1-.383.663,3.536,3.536,0,0,1-2.016.544,9.2,9.2,0,0,1-2.415-.211,4.6,4.6,0,0,1-.912-.3,1.951,1.951,0,0,1-.74-.686c-.268-.383-.5-.767-.767-1.15a1.48,1.48,0,0,0-.79-.671,1.062,1.062,0,0,0-.736.276,7.877,7.877,0,0,0-1.7,3.109l-.234.652a7.9,7.9,0,0,0-.471,2.189s-.383,3.45,1.483,4.42c.226.119.456.222.69.326l.337.149a.249.249,0,0,1,.142.08c0,.05,0,.1,0,.146A2.3,2.3,0,0,0,7.9,44.077c.234.356.74.3,1.1.2a2.3,2.3,0,0,0,.866-.517c.5-.441.951-.966,1.671-.981a2.2,2.2,0,0,1,.648.1l.18.057a.291.291,0,0,1,.146.123,1.487,1.487,0,0,1,.188.337c.153.383.169.889.571,1.1a1.246,1.246,0,0,0,1.307-.157,4.216,4.216,0,0,0,.9-1.081l.184-.272.084-.1a.5.5,0,0,1,.268-.042c.356-.027.713-.038,1.069-.042.721,0,1.437.034,2.154.1,1.384.126,2.76.36,4.128.594a1.15,1.15,0,0,1,.7.257.97.97,0,0,1,.2.468.977.977,0,0,0,.165.445.632.632,0,0,0,.544.165c.41-.046.471-.525.64-.813a1.234,1.234,0,0,1,.2-.261A.211.211,0,0,1,26,43.67h1.867l.073.073a2.111,2.111,0,0,1,.245.333,2.756,2.756,0,0,0,.364.56.648.648,0,0,0,.916-.019c.521-.487.767-1.33,1.533-1.5a1.234,1.234,0,0,1,.663.038,1.031,1.031,0,0,1,.425.337c.284.333.724.912,1.119.4.241-.31.226-.747.433-1.077a1.21,1.21,0,0,1,1.407-.356c.215.061.671.364.916.2a1.434,1.434,0,0,0,.425-.544A2.327,2.327,0,0,1,37.6,41.19c.648-.276,1.575-.471,1.844-1.215a1.564,1.564,0,0,0-.2-1.33ZM9.922,35.659a4.032,4.032,0,0,1-1.882-.617,3.224,3.224,0,0,0-1.414-.5,1.292,1.292,0,0,0-.215,0,1.15,1.15,0,0,0-.383.126,7.494,7.494,0,0,1,1.326-2.384,3.5,3.5,0,0,0,.728,1.656,4.837,4.837,0,0,0,1.342,1.046,3.339,3.339,0,0,1,.87.644A2.4,2.4,0,0,1,9.922,35.659ZM18,40.309l.1-.249Zm.629-1.457-.031.054-.05.092a15.043,15.043,0,0,0-.625,1.533h0l-2.6-.613c.05-.134.1-.261.161-.383l.034-.073q.073-.161.149-.318l.031-.061q.088-.176.184-.341h0a7.421,7.421,0,0,1,.475-.724h0c.088-.119.176-.23.264-.337h0q.138-.161.276-.307l.046-.046c.092-.092.184-.184.276-.268h0a6.447,6.447,0,0,1,.981-.736l.126-.077.107-.1.077-.046.1-.061L18.65,36l.115-.073h.023l.13-.088h0q.144-.1.276-.207h0l.119-.1.134-.123a3.7,3.7,0,0,0,.675-.916l.042-.069.054-.107.057-.123.034-.073.038-.08a.583.583,0,0,1,.061-.146h0l.192.073.272.1,1.583.606a5.531,5.531,0,0,1-1.917,2.584h0c-.333.249-.671.456-.993.652l-.119.077-.077.054-.031.023a2.614,2.614,0,0,0-.7.782Zm7.524-2.507h0a5.546,5.546,0,0,1-1.2,1.809h0A8.283,8.283,0,0,1,23.38,39.3c-.169.1-.31.192-.433.28h0l-.05.035-.092.073h0a2.078,2.078,0,0,0-.3.291h0l-.088.119-.023.035-.034.054a5.846,5.846,0,0,0-.479.966,1.506,1.506,0,0,1-.1.272h-.042l-.115-.023-.977-.2-.3-.057-1.23-.257a5.531,5.531,0,0,1,1.917-2.6h0c.33-.245.663-.448.985-.644s.544-.33.79-.51l.169-.13.054-.046q.126-.1.241-.218l.149-.157.05-.057a3.7,3.7,0,0,0,.326-.414v-.034c.046-.077.092-.153.134-.234l.031-.054.054-.107.065-.1.031-.073.023-.057a.579.579,0,0,1,.046-.161h0l.061.023.157.061.245.1,1.583.606A.793.793,0,0,1,26.151,36.345Z" transform="translate(-5 -27.86)" fill="#3f4a3d"/><path d="M92.07,53.52l.031.023Z" transform="translate(-58.68 -43.686)" fill="#3f4a3d"/><path d="M91.119,52.809l-.169-.119Z" transform="translate(-57.989 -43.174)" fill="#3f4a3d"/></g><g transform="translate(191.683 337.135)"><g transform="translate(11 9)"><path d="M18.028,961.362l.868.87-4.052,14.725a6.318,6.318,0,0,0-.948-.32l3.124-14.025Zm3.373.81,1,1-6.148,14.485c-.279-.161-.551-.309-.818-.44L19.5,962.442Zm3.743.97.479,1.2L17.5,978.438c-.232-.157-.459-.307-.689-.45L23,963.413Zm1,1.591,2.505.28,1.118,2.5L18.836,979.408c-.286-.222-.541-.409-.808-.6Zm4.1,3.2,1.537.26.269,2.111L19.9,980.3c-.185-.163-.373-.33-.569-.49Zm2.186,2.9,1.567.52v1.791l-12.954,8.233c-.2-.216-.428-.423-.659-.64Zm1.866,2.881,1.487.74-1.068,1.861-12.6,6.462a6.97,6.97,0,0,0-.659-.91Zm-20.579,3.541a13.849,13.849,0,0,1,4.152,2.221,14.986,14.986,0,0,1,3.693,3.611L19.8,984.34a29.037,29.037,0,0,0-6.846-5.042ZM12.6,979.828a28.486,28.486,0,0,1,6.7,4.912c-1.238,1.687-2.368,2.492-3.443,2.671a4.667,4.667,0,0,1-3.423-1.18,4.233,4.233,0,0,1-1.4-3.591,4.528,4.528,0,0,1,1.567-2.811Z" transform="translate(-11 -961.362)" fill="#3f4a3d"/></g></g><g transform="translate(761.893 683.846)"><path d="M28.851,28.387a2.523,2.523,0,0,1,1.083,1.857,2.338,2.338,0,0,1-.7,1.857s.077.077.464.077c2.167,0,2.708-1.2,2.708-1.625a1.652,1.652,0,0,0-1.238-1.548,4.046,4.046,0,0,1,1.118.115A3.4,3.4,0,0,1,34.6,30.93a2.52,2.52,0,0,1,.287,1.111,2.721,2.721,0,0,1-1.006,2.071A6.02,6.02,0,0,1,30.554,35.2a2.247,2.247,0,0,0,1.625.7,6.165,6.165,0,0,0,.851-.077,3.979,3.979,0,0,1-1.634.976,4.832,4.832,0,0,1-1.461.262,4.09,4.09,0,0,1-.879-.082,3.41,3.41,0,0,1-2.5-1.985,4.953,4.953,0,0,1-.337-1.261,1.916,1.916,0,0,0-.619,1.316,1.957,1.957,0,0,0,.619,1.393c-.089-.037-1.857-.387-1.857-2.863-.008-.4,0-.719,0-1.083a2.016,2.016,0,0,0-.794-1.582q-1.262-1.04-2.534-2.07a2.276,2.276,0,0,1-.948-1.8,1.33,1.33,0,0,0-.594-1.09,7.826,7.826,0,0,1-.672-.545,1.2,1.2,0,0,1-.311-1.267c.022.018.04.025.042.037a1.2,1.2,0,0,0,1.133.885c.292.047.589.067.877.129a.7.7,0,0,1,.543.57c.043.18.077.363.119.543a.584.584,0,0,0,.617.515c.236.015.474.027.709.05a1.807,1.807,0,0,1,.977.418c1,.813,2,1.621,3,2.434a2.008,2.008,0,0,0,1.16.525,1.2,1.2,0,0,0,1.238-1.161A2.422,2.422,0,0,0,28.851,28.387Z" transform="translate(-6.267 -8.053)" fill="#3f4a3d"/><path d="M16.79,28.807q-1.058-.872-2.124-1.735c-.4.643-1.924,2.927-4.079,2.927a2.9,2.9,0,0,1-2.551-1.6,4.223,4.223,0,0,1-.464-1.876,5.729,5.729,0,0,1,1.7-4.122,1.321,1.321,0,0,0-1.154.18c-.37.246-1.039.667-1.088.693-.072,0-.072,0-.072-.079l.232-1.548A6.134,6.134,0,0,0,5.1,23.113c-.464.464-.84.877-.84.877a8.617,8.617,0,0,1,.219-2.966c.045-.316-.077-.31-.077-.31-.155,0-.617.474-.849.716a5.671,5.671,0,0,0-1.43,2.6c-.048.191-.079.433-.118.626.015,0,.387-.542.7-.542.155,0,.164.237.159.321a1.6,1.6,0,0,1-.093.384,8.959,8.959,0,0,0-.458,2.7A7.81,7.81,0,0,0,2.4,28.788,6.26,6.26,0,0,0,3.005,30.7a6.918,6.918,0,0,0,1.315,1.78,3.973,3.973,0,0,1-.129-.415,2.52,2.52,0,0,1-.045-.6c.027-.245.241-.3.42-.128A14.308,14.308,0,0,0,6.04,32.584a6.681,6.681,0,0,0,3.7,1.131,7.963,7.963,0,0,0,2.053-.275,6.927,6.927,0,0,0,2.7-1.421,10.482,10.482,0,0,0,2.427-3.088A1.583,1.583,0,0,0,16.79,28.807Zm3.361-8.661a14.725,14.725,0,0,0-3.16,3.321.169.169,0,0,0-.014.025,2.713,2.713,0,0,1,.792.449c.33.269.661.535.991.8.027-.054.051-.1.073-.148a17.331,17.331,0,0,1,2.288-3.826A3.249,3.249,0,0,1,24.835,20a.808.808,0,0,0,.386.1.892.892,0,0,0,.381-.119,6.365,6.365,0,0,1,2.989-.717c.207,0,.648.064.648.064A6.655,6.655,0,0,0,27.9,18.293a5.082,5.082,0,0,0-2.534-.674,9.528,9.528,0,0,0-2.188.386.269.269,0,0,1-.244-.1.294.294,0,0,1,.006-.245A2.107,2.107,0,0,1,23.667,17a4.171,4.171,0,0,0-1.731.839c-.33.255-.657.513-.99.765a.717.717,0,0,1-.228.115c-.219.064-.33-.044-.266-.256a1.367,1.367,0,0,1,.123-.275c.08-.141.17-.275.263-.423A5.857,5.857,0,0,0,18.1,21.257a7.7,7.7,0,0,1,2.4-1.78,7.058,7.058,0,0,1,3.1-.7s.077.063.077.077a3.762,3.762,0,0,0-.956.147A7.821,7.821,0,0,0,20.151,20.147Z" transform="translate(0 -5.333)" fill="#3f4a3d"/><path d="M11.893,11.155a2.75,2.75,0,0,0,.17.875,4.45,4.45,0,0,0,1.176,1.709c.5.486,1.021.944,1.527,1.42a4.746,4.746,0,0,1,1.218,1.663,2.19,2.19,0,0,1,.165,1.15.169.169,0,0,0,.123.206.622.622,0,0,1,.425.566c.006.133.089.112.169.071a1.8,1.8,0,0,0,.675-.617.878.878,0,0,1,.077.387,3.276,3.276,0,0,1-1.441,2.473c.009-.061.016-.11.025-.158a1,1,0,0,0-.714-1.18,3.173,3.173,0,0,0-1.043-.129h-.31c.029-.067.243-.509.291-.682a.338.338,0,0,0-.272-.474,3.814,3.814,0,0,0-.833-.1,8.2,8.2,0,0,0-1.894.23c-.087.021-.227.066-.311.093a4.789,4.789,0,0,1,1.238.232,3.044,3.044,0,0,0-.31,1.006c0,.31.155.542.31.542a.5.5,0,0,0,.311-.155c-.014.084-.1.529-.111.739-.018.329.111.5.5.5h.232a2.593,2.593,0,0,1-2.012,1.238.761.761,0,0,1-.129-.014,1.646,1.646,0,0,0,.711-.914l-.924.118a5.287,5.287,0,0,0,.416-.591,1.381,1.381,0,0,0-.056-1.52,1.68,1.68,0,0,0-1.257-.638,3.03,3.03,0,0,0-1.238.232,3.212,3.212,0,0,1,1.625-1.625,4.3,4.3,0,0,0-1.238-.387,7.9,7.9,0,0,1,2.244-.851c-.077,0-.271,0-.31,0a3.954,3.954,0,0,0-3.25,1.238,5.864,5.864,0,0,1,1.083.232,8.462,8.462,0,0,0-3.1,1.625,3.278,3.278,0,0,0,.232-1.006c0-1.625-2.058-1.3-2.089-1.316a8.775,8.775,0,0,1,1.772-1.018c.245-.132.936-.452.936-.839,0-.542-1.074-1.331-1.161-1.393a8.023,8.023,0,0,1,2.012.232,2.473,2.473,0,0,1-.3-1.912,3.243,3.243,0,0,0,1.1,1.189c.425.28.872.527,1.307.794a11.184,11.184,0,0,1,.976.622,5.831,5.831,0,0,1,.624.636c.034.036.061.078.092.117l.053-.026c-.049-.122-.088-.249-.148-.366a3.024,3.024,0,0,0-1.048-1.146A.663.663,0,0,1,9.9,13.77a4.734,4.734,0,0,1,.007-1.764A5.739,5.739,0,0,1,10.345,11v.077a3.25,3.25,0,0,0,.851,2.089,21.614,21.614,0,0,0,1.868,1.69,14.221,14.221,0,0,1,1.615,1.715,1.634,1.634,0,0,0-.051-.175,5.294,5.294,0,0,0-1.306-1.72c-.464-.435-.936-.862-1.408-1.289a.879.879,0,0,1-.3-.563A3.191,3.191,0,0,1,11.893,11.155Zm1.393,5.417a2.224,2.224,0,0,0,.123.46,1.488,1.488,0,0,0,1.115.778s0-.542-.774-1.083A.859.859,0,0,0,13.286,16.572Z" transform="translate(-0.762 -3.048)" fill="#3f4a3d"/><path d="M7.619,8.958a6.866,6.866,0,0,1,.619-1.625,6.046,6.046,0,0,0,.774,1.625,3.957,3.957,0,0,0,.937.927c.071.046.142.092.214.137a5.333,5.333,0,0,1,.1-1.222,5.025,5.025,0,0,1,.452-1.1V7.643a2.031,2.031,0,0,1,1.858-2.167,2.03,2.03,0,0,1,1.857,2.167,4.682,4.682,0,0,1-.168,1.548c-.009.023-.017.044-.026.066a3.834,3.834,0,0,0,.288.4l.019.024a5.665,5.665,0,0,0,.4.436c.292.285.6.571.906.846.2.186.409.373.61.562.049.046.088.091.134.137a5.6,5.6,0,0,0,1.549-3.708c0-3.1-2.494-4.952-5.572-4.952S7,4.935,7,7.952a5.159,5.159,0,0,0,.535,2.216A5.541,5.541,0,0,1,7.619,8.958Z" transform="translate(-1.905)" fill="#3f4a3d"/></g><g transform="translate(209.283 630.757) rotate(42)"><path d="M96.621,49.653c3.494-.129,10.185-.462,5.157-9.815a3.6,3.6,0,0,1,.37-3.457c1.072-1.275.684-3.993-.259-5.028-.092,1.183.166,4.418-2.477,4.307a1.893,1.893,0,0,1-1.793-1.867c-.018-1.331-.3-21.275-.3-21.608a6.971,6.971,0,0,1,.869-1.608L97.9,4.2a3.256,3.256,0,0,0-1.257.98,49.015,49.015,0,0,0-1.682,6.155c-.092.628.628.721.628.721s-.333,20.111-.333,20.444-3.9,3.6-3.734-3.993c-.887,1.4-1.7,3.623,0,6.895a9.971,9.971,0,0,1-.5,4.362c-.462.887-3.124,6.229.018,8.392A8.184,8.184,0,0,0,96.621,49.653Z" transform="translate(0)" fill="#3f4a3d"/><path d="M235.5,190.3" transform="translate(-118.99 -151.701)" fill="#3f4a3d" stroke="#060000" stroke-miterlimit="10" stroke-width="1"/></g><g transform="translate(522.427 950.68)"><path d="M4.7,30.37V9.884c2.722,1.185,5.239,1.346,5.7.337S8.933,7.25,6.116,5.933.563,4.419.073,5.472c-.432.936,1.054,2.568,3.417,3.863V30.37L1.807,31.833a.607.607,0,1,0,.79.915L4.06,31.453l1.463,1.295a.615.615,0,0,0,.856-.059.607.607,0,0,0-.059-.856Z" transform="translate(0)" fill="#3f4a3d"/><path d="M43.049,38.467l-1.324-.849V29h-1v8.633l-1.324.849a.5.5,0,0,0-.154.688.5.5,0,0,0,.688.154l1.3-.812,1.288.827a.519.519,0,0,0,.271.073.5.5,0,0,0,.263-.915Z" transform="translate(-10.513 -6.495)" fill="#3f4a3d"/><path d="M36.935,27.666h6.943A.915.915,0,0,0,44.793,27H36.05A.929.929,0,0,0,36.935,27.666Z" transform="translate(-9.675 -5.959)" fill="#3f4a3d"/><path d="M36.1,25.958h8.706a.929.929,0,0,0-.878-.658H36.978a.915.915,0,0,0-.878.658Z" transform="translate(-9.688 -5.502)" fill="#3f4a3d"/><path d="M26,24.15A7.8,7.8,0,0,0,14.9,35.125l-1.039.98a.578.578,0,0,0,.066.8.571.571,0,0,0,.79.11l1.112-1.09a7.807,7.807,0,0,0,9.3,0l1.127,1.054a.571.571,0,0,0,.79-.11.563.563,0,0,0,.066-.8l-1.039-.944A7.792,7.792,0,0,0,26,24.15Zm-.973,10.06a6.4,6.4,0,1,1,1.88-4.536A6.4,6.4,0,0,1,25.029,34.21Z" transform="translate(-3.395 -4.572)" fill="#3f4a3d"/><path d="M21.346,25a5.56,5.56,0,1,0,5.575,5.524A5.56,5.56,0,0,0,21.346,25Z" transform="translate(-4.241 -5.422)" fill="#3f4a3d"/><path d="M35.154,16.3a.241.241,0,0,0-.19-.293L27.048,14.4a.249.249,0,0,0-.293.19l-.2,1.017,8.377,1.675Z" transform="translate(-7.125 -2.575)" fill="#3f4a3d"/><rect width="3.022" height="2.773" transform="matrix(0.195, -0.981, 0.981, 0.195, 21.588, 17.047)" fill="#3f4a3d"/><path d="M36.363,21.566l.541-2.722-2.122-.424-.593,2.927,1.88.373A.234.234,0,0,0,36.363,21.566Z" transform="translate(-9.176 -3.656)" fill="#3f4a3d"/><path d="M25.926,19.724,27.8,20.1l.593-2.963L26.27,16.71l-.541,2.729A.249.249,0,0,0,25.926,19.724Z" transform="translate(-6.904 -3.197)" fill="#3f4a3d"/><path d="M8.434,16.3l.2,1.017,8.4-1.712-.2-1.017a.241.241,0,0,0-.293-.19L8.631,15.971a.241.241,0,0,0-.2.329Z" transform="translate(-2.259 -2.575)" fill="#3f4a3d"/><rect width="2.773" height="3.022" transform="matrix(0.981, -0.195, 0.195, 0.981, 9.315, 14.619)" fill="#3f4a3d"/><path d="M8.85,18.863l.541,2.729a.241.241,0,0,0,.3.2l1.873-.373-.593-2.927Z" transform="translate(-2.375 -3.675)" fill="#3f4a3d"/><path d="M18.023,20.1l1.873-.373a.249.249,0,0,0,.2-.285l-.541-2.729-2.122.424Z" transform="translate(-4.678 -3.197)" fill="#3f4a3d"/></g><g transform="translate(171.501 111.167)"><path d="M48.014,20.563H26.844A3.01,3.01,0,0,0,23.567,23.3V46.021a3.01,3.01,0,0,0,3.277,2.735h4.032A3.632,3.632,0,0,0,33.145,48a3.629,3.629,0,0,0,2.267.752h4.032A3.63,3.63,0,0,0,41.713,48a3.633,3.633,0,0,0,2.268.752h4.033a3.01,3.01,0,0,0,3.277-2.735V23.3A3.011,3.011,0,0,0,48.014,20.563ZM31.915,46.5c0,.345-.573.746-1.312.746H26.4c-.739,0-1.311-.4-1.311-.746V22.824c0-.345.572-.746,1.311-.746h3.575V35.035a1.723,1.723,0,0,0,1.8,1.633h.137V46.5Zm8.927,0c0,.347-.575.748-1.312.748h-4.2c-.738,0-1.311-.4-1.311-.746V36.667h.013a1.723,1.723,0,0,0,1.8-1.633V22.077H38.9V35.034a1.723,1.723,0,0,0,1.8,1.633h.137Zm8.925,0c0,.347-.572.747-1.312.747h-4.2c-.738,0-1.31-.4-1.31-.747V36.667h.013a1.724,1.724,0,0,0,1.8-1.633V22.077h3.7c.739,0,1.312.4,1.312.746Z" fill="#3f4a3d"/></g><g transform="translate(71.116 781.345)"><path d="M7,4.755v13.41a.371.371,0,0,0,.295.363,14.047,14.047,0,0,1,3.846,1.428,13.282,13.282,0,0,1,1.6,1.05.189.189,0,0,0,.3-.151V5.7a.4.4,0,0,0-.174-.325,9.522,9.522,0,0,0-1.02-.567A10.9,10.9,0,0,0,7.763,4,.75.75,0,0,0,7,4.755Z" transform="translate(-1.222 0)" fill="#3f4a3d"/><path d="M23.044,18.176V4.758a.739.739,0,0,0-.763-.748,10.566,10.566,0,0,0-4.087.824,8.367,8.367,0,0,0-1.02.567A.331.331,0,0,0,17,5.7V20.873a.186.186,0,0,0,.3.144,13.423,13.423,0,0,1,5.447-2.478A.378.378,0,0,0,23.044,18.176Z" transform="translate(-3.667 -0.002)" fill="#3f4a3d"/><path d="M4.931,20.35a.783.783,0,0,1-.665-.748V6.206a.192.192,0,0,0-.2-.2A2.279,2.279,0,0,0,2,8.269V20.357a2.268,2.268,0,0,0,2.267,2.267h6.256a11.631,11.631,0,0,0-1.33-.846A12.624,12.624,0,0,0,4.931,20.35Z" transform="translate(0 -0.491)" fill="#3f4a3d"/><path d="M24.976,6.206V19.6a.783.783,0,0,1-.665.748,12.611,12.611,0,0,0-4.261,1.42,12.771,12.771,0,0,0-1.33.846h6.256a2.264,2.264,0,0,0,2.267-2.267V8.269A2.279,2.279,0,0,0,25.18,6.01.192.192,0,0,0,24.976,6.206Z" transform="translate(-4.088 -0.491)" fill="#3f4a3d"/></g><g transform="translate(781.637 301.146)"><g transform="translate(11.001 27.982)"><path d="M33.132,980.347a1.484,1.484,0,0,0-1.268.966L25.1,999.665a1.449,1.449,0,1,0,2.716,1.011l6.761-18.351a1.449,1.449,0,0,0-1.449-1.977ZM23.127,981.8a1.738,1.738,0,0,0-.83.257l-10.625,6.761a1.449,1.449,0,0,0,0,2.445L22.3,998.02a1.449,1.449,0,1,0,1.554-2.445l-8.708-5.539,8.708-5.539a1.449,1.449,0,0,0-.724-2.7Zm13.432.015a1.449,1.449,0,0,0-.739,2.686l8.708,5.539-8.708,5.539a1.449,1.449,0,1,0,1.554,2.445L48,991.259a1.449,1.449,0,0,0,0-2.445l-10.625-6.761A1.459,1.459,0,0,0,36.558,981.811Z" transform="translate(-11.001 -980.344)" fill="#3f4a3d"/></g></g><path d="M228.512-57.7" fill="none" stroke="#707070" stroke-width="1"/><path d="M464.477,54.417,434.708,37.781S367.98.971,354.606-67.607" transform="translate(-26 14.012)" fill="none" stroke="#2e3336" stroke-linecap="round" stroke-width="2" stroke-dasharray="10"/></g></g></svg>