<svg xmlns="http://www.w3.org/2000/svg" xmlns:xlink="http://www.w3.org/1999/xlink" width="2206" height="1281" viewBox="0 0 2206 1281"><defs><clipPath id="b"><rect width="2206" height="1281"/></clipPath></defs><g id="a" clip-path="url(#b)"><g transform="translate(145.701 56.572)"><path d="M-10479.99,2606.153c-41.59-14.869-93.8-21.323-143.786-16.991s-81.176,16.991-81.176,16.991-59.467,48.14-183.12,0-187.84-169.905-187.84-169.905-17.936-54.748-118.934-65.13-152.913,46.252-152.913,46.252-79.289,57.579-51.916,138.756,70.794,41.532,70.794,41.532,30.205-22.654,10.383-47.2-50.972-5.664-50.972-5.664-29.261,20.766-30.205,73.625-57.58,110.438-57.58,110.438l-38.7,41.532s-54.394,65.885-17.4,123.344" transform="translate(11945 -1670)" fill="none" stroke="#2e3336" stroke-linecap="round" stroke-width="2" stroke-dasharray="10"/><path d="M-10425.466,2140.845s2.817-39.659,43.469-70.064,75.683-34.7,98.156-64.115,89.895-81.631,144.095-82.953,116-96.834,116-96.834,83.578-123.005,0-212.405" transform="translate(11945 -1670)" fill="none" stroke="#2e3336" stroke-linecap="round" stroke-width="2" stroke-dasharray="10"/><path d="M-11331.418,2403.532s-40.056,21.673-88.175,4.917-50.269-14.178-96.669-56.283-123.735,0-123.735,0-30.076,16.864-60.15,51.664-39.1,38.238-39.1,38.238-13.319,13.319-53.705,24.06-73.9-5.585-73.9-5.585-55.208-28.463-63.8-81.309-21.053-75.617-21.053-75.617-9.326-47.519-65.11-94.647-73.1-37.51-73.1-37.51" transform="translate(11945 -1670)" fill="none" stroke="#2e3336" stroke-linecap="round" stroke-width="2" stroke-dasharray="10"/><path d="M-11532.183,2340.3s-18.838-11.567-20.821-33.049.331-36.685,20.821-58.5,36.354-69.073,5.618-123.935-88.819-48.748-88.819-48.748-108.071,13.881-143.1-102.122,46.435-188.793,46.435-188.793,59.158-60.15,187.389-43.956,174.5,55.523,174.5,55.523,46.765,37.759,51.722,104.848,30.405,140.79,171.525,105.757" transform="translate(11945 -1670)" fill="none" stroke="#2e3336" stroke-linecap="round" stroke-width="2" stroke-dasharray="10"/><path d="M-10546.61,2387.3c84.338-121.76,109.472-179.428,109.472-179.428s58.088-139.633-84.9-231.232-319.479-32.395-319.479-32.395-235.709,62.59-280.953,62.59" transform="translate(11945 -1670)" fill="none" stroke="#2e3336" stroke-linecap="round" stroke-width="2" stroke-dasharray="10"/><path d="M-10541.679,2379.936l-21.16,33.732s-12.54,38.849-1.369,84.09,11.733,86.149,120.088,123.012,263.627-48.592,283.176-108.914-27.368-97.743-27.368-97.743-125.111-118.967-53.061-193.252,216.373-34.629,216.373-34.629,50.172,13.889,139.588,51.976" transform="translate(11945 -1670)" fill="none" stroke="#2e3336" stroke-linecap="round" stroke-width="2" stroke-dasharray="10"/><g transform="matrix(0.966, -0.259, 0.259, 0.966, 606.808, 199.02)"><path d="M41.013,31.192c-2.3-6.439-2.8-12.083-10.452-9.365h0a11.229,11.229,0,0,1-3.888.711H18.1a12.3,12.3,0,0,1-3.888-.711h0C6.6,19.109,6.061,24.8,3.761,31.192c-2.3,6.439-1.338,12.626,2.174,13.88,2.8,1,6.4-1.547,8.905-5.979a3.844,3.844,0,0,0,1.714.418,3.908,3.908,0,0,0,3.888-3.888h3.93a3.908,3.908,0,0,0,3.888,3.888,3.987,3.987,0,0,0,1.714-.418C32.4,43.484,36,46.076,38.8,45.073,42.309,43.818,43.27,37.631,41.013,31.192Zm-8.529-6.1a1.463,1.463,0,1,1-1.463,1.463A1.481,1.481,0,0,1,32.484,25.088ZM29.6,27.973a1.463,1.463,0,1,1-1.463,1.463A1.481,1.481,0,0,1,29.6,27.973ZM11.58,33.2a.286.286,0,0,1-.293-.293v-2.3h-2.3a.323.323,0,0,1-.334-.293V28.6a.3.3,0,0,1,.334-.293h2.3v-2.3a.286.286,0,0,1,.293-.293h1.714a.286.286,0,0,1,.293.293v2.3h2.3a.323.323,0,0,1,.334.293v1.672a.3.3,0,0,1-.334.293h-2.3v2.3a.286.286,0,0,1-.293.293H11.58Zm4.933,4.264a1.819,1.819,0,0,1,0-3.637,1.819,1.819,0,1,1,0,3.637Zm9.867-1.84a1.811,1.811,0,0,1,1.8-1.8,1.819,1.819,0,1,1-1.8,1.8Zm6.1-1.881a1.463,1.463,0,1,1,1.463-1.463A1.481,1.481,0,0,1,32.484,33.742Zm2.885-2.885a1.463,1.463,0,1,1,1.463-1.463A1.481,1.481,0,0,1,35.369,30.858Z" transform="translate(0 0)" fill="#3f4a3d"/></g><g transform="translate(486.097 804.195)"><path d="M58.678,29.185c1.527,2.056,3,4.053,4.522,6.108h.059c0-.117-.059-.235-.059-.352-.352-1.233-.7-2.408-1.057-3.641a1.472,1.472,0,0,0-.235-.411c-1.175-1.586-2.408-3.113-3.583-4.7a.82.82,0,0,1-.176-.529A34.866,34.866,0,0,1,59.03,15.5c.117-.587.294-1.175.352-1.762a2.568,2.568,0,0,1,.764-1.41c1.175-1.116,2.291-2.232,3.406-3.348a1.229,1.229,0,0,1,.352-.235c3.348-1.41,6.637-2.819,9.984-4.287.059,0,.117-.059.235-.059V27.129c0,2-.176,4.053-.352,6.049-.176,2.056-.411,4.17-.7,6.167a61.509,61.509,0,0,1-3.524,13.274,63.469,63.469,0,0,1-3,6.4c-1.233-2.056-2.467-4.229-3.818-6.226s-2.937-3.935-4.4-5.873c1.116-1.292,2.291-2.643,3.465-3.994,1.175,2.232,2.291,4.4,3.406,6.578.059,0,.059,0,.117-.059-.059-.47-.117-.94-.176-1.351l-.352-2.114c-.059-.176-.117-.411-.176-.587a68.017,68.017,0,0,1-3.818-8.751c-.7-2.232-1.292-4.522-1.938-6.813A4.764,4.764,0,0,1,58.678,29.185Z" transform="translate(-15.722)" fill="#3f4a3d"/><path d="M41.9,54.969a57.615,57.615,0,0,1,5.345,7.107c-.822-.411-1.586-.822-2.408-1.233l-5.815-3a1.916,1.916,0,0,1-1-1.233c-.7-2.7-1.41-5.4-2.173-8.105a1.048,1.048,0,0,0-.529-.7c-2.525-1.41-4.992-2.878-7.459-4.346a3.986,3.986,0,0,1-2.056-3.172c-.235-2-.47-4.053-.764-6.108-.587.47-1.233.7-1.527,1.527-.646,2.056-1.41,4.053-2.114,6.049a1.788,1.788,0,0,1-.529.764.643.643,0,0,1-.646.059.681.681,0,0,1-.235-.587c.176-1.527.47-3.054.7-4.581.117-.881.294-1.7.411-2.584a.634.634,0,0,1,.176-.411l5.4-5.58a3.151,3.151,0,0,1,1.879-.764c2.76-.646,5.521-1.233,8.281-1.821a1.682,1.682,0,0,0,1.233-.94c.881-1.645,1.821-3.289,2.76-4.934a1.478,1.478,0,0,1,1.468-.881v.235c-.7,2.349-1.468,4.7-2.173,7.048a1.6,1.6,0,0,1-.764.881c-2.584,1.351-5.227,2.7-7.811,4.053a1.387,1.387,0,0,0-.47.529c-.294.529-.587,1.116-.881,1.7a1.445,1.445,0,0,0,.176,1.527,1.144,1.144,0,0,0,1.292.47l.881-.176c2.467-.646,4.992-1.292,7.459-1.879.7-.176.881-.059,1.116.646.822,3,1.645,5.932,2.525,8.927a21.767,21.767,0,0,0,1.116,2.7,2.863,2.863,0,0,1,.176.411c-.94-.411-1.762-.764-2.584-1.175a.749.749,0,0,1-.294-.411c-1.057-2.232-2.173-4.522-3.23-6.754-.117-.176-.176-.411-.352-.646-2.173,1-4.346,1.938-6.637,2.937a4.8,4.8,0,0,0,.47.529l5.814,5.11a2.822,2.822,0,0,1,1.116,2.114c.294,2.408.646,4.816,1,7.224a1.133,1.133,0,0,0,.176.587c.764.881,1.527,1.762,2.349,2.643A34.322,34.322,0,0,0,41.9,54.969Z" transform="translate(0 -6.226)" fill="#3f4a3d"/><path d="M33.684,23.8a2.5,2.5,0,1,1-.059,4.992A2.584,2.584,0,0,1,31.1,26.267,2.473,2.473,0,0,1,33.684,23.8Z" transform="translate(-4.589 -8.006)" fill="#3f4a3d"/></g><g transform="translate(395.307 520.888)"><path d="M52.824,42.889a1.769,1.769,0,0,1-.672-.56A8.314,8.314,0,0,0,52.32,38.8,8.612,8.612,0,0,0,43.8,31.517a10.879,10.879,0,0,0-1.345.112,9.334,9.334,0,0,0-1.681.448l-3.025-6.05,3.978-.728-.28-1.681-1.345.224c-1.176-.616-3.249-1.4-4.146-1.793-.9-.448-.448-.5-2.521-1.681a11.592,11.592,0,0,1,3.081-3.529c.336-.84-.112-2.3.84-2.577.224-.056.84-.392,1.12-.448a1.539,1.539,0,0,0,.952.56c.336-.056.728-.224,2.185-1.289.28-1.232.336-1.064.448-1.625a13.1,13.1,0,0,0,1.793.392.675.675,0,0,0,.28-.28c-.728-3.081-2.353-5.21-6.05-4.986A2.723,2.723,0,0,0,37.082,8.6c0,.28.28.392.28.672a3.169,3.169,0,0,1-.448,1.569,1.77,1.77,0,0,1-1.457.448c-.336-.056-.5-.616-2.913-.224-3.249.56-4.594,4.426-8.515,7.507a5.078,5.078,0,0,0-1.4,4.2c.224,1.232,1.176,2.017,1.513,3.361.336,1.176,1.9,4.538,1.849,5.154a1.44,1.44,0,0,1-.392.672l-1.961.952L20.668,28.6q1.092-.168,2.689-.336h0s.336-.448.168-.784a.656.656,0,0,0-.616-.28H21.06c-.56,0-1.176.056-1.681.056a7.221,7.221,0,0,1-1.289-.056,1.425,1.425,0,0,1-.392-.112,2.945,2.945,0,0,0-.952-.224.644.644,0,0,0-.616.336c-.336.672.336,1.961.84,2.465.056,0,.056.056.112.056h0a1.29,1.29,0,0,0,.5-.168c.28-.112.616-.224,1.12-.392l3.473,5.154L20.5,36.839a8.236,8.236,0,0,0-5.21-.784c-4.706.336-7.9,4.93-7.171,9.636a8.612,8.612,0,0,0,8.515,7.283c.448,0,25.882.112,36.19,0ZM42.8,33.646A6.089,6.089,0,0,1,43.8,33.59a6.461,6.461,0,0,1,6.443,5.49,6.783,6.783,0,0,1,0,2.129c-.168,0-.336.056-.56.056a2.733,2.733,0,0,0,.336.728,6.2,6.2,0,0,1-.672,1.513,1.565,1.565,0,0,1-1.008-.84c-.28.728-.616,1.513-.616,1.513L45.6,45.635l-4.146.56a6.347,6.347,0,0,1-4.09-5.1,6.544,6.544,0,0,1,2.689-6.33l2.129,4.258a1.749,1.749,0,0,0-.28,1.4,1.989,1.989,0,0,0,1.961,1.681h.28a1.961,1.961,0,0,0,1.625-2.241,2.029,2.029,0,0,0-1.9-1.681l-2.073-4.2A2.677,2.677,0,0,1,42.8,33.646Zm-17.255,8.4h0a11.825,11.825,0,0,1-.84-.84,11.774,11.774,0,0,0-.728-1.457c.28-.448.784-1.345,1.008-1.681L27.054,41.1a3.211,3.211,0,0,0-.224.784Zm-7.059,1.064,2.465-3.641a4.478,4.478,0,0,1,.728.728,2.427,2.427,0,0,0-.784,1.345c.056.056.784.448,1.681.952ZM30.471,31.741a13.253,13.253,0,0,0-1.008,3.081,31.885,31.885,0,0,1-.448,4.65,3.158,3.158,0,0,0-.672.224l-2.3-3.361a44.7,44.7,0,0,1,2.913-3.922Zm.56,7a32.7,32.7,0,0,1,1.681-5.154c.56-1.232,1.232-2.353,1.12-2.689a2.731,2.731,0,0,0-.224-.616l2.969-1.4Zm-.616-18.151c-.28.84.392,1.12,2.577,2.633,2.633,1.008,1.4.5,3.417,1.289l-1.513.168,1.289,2.241-3.193,1.513a18.57,18.57,0,0,0-4.034-6.443C29.967,21.1,30.023,20.761,30.415,20.593Zm-1.345,8.851c.168.056.336.224.616.56l-.5.224A2.724,2.724,0,0,1,29.071,29.444Zm-5.826,6.5c-.224.728-.5,1.457-.672,2.129-.168-.168-.336-.28-.448-.392ZM16.634,50.9a6.461,6.461,0,0,1-6.443-5.49,6.588,6.588,0,0,1,5.434-7.451,5.753,5.753,0,0,1,3.7.5l-2.689,3.978H16.3a1.961,1.961,0,0,0-1.625,2.241,1.989,1.989,0,0,0,1.961,1.681h.28a1.965,1.965,0,0,0,1.569-1.289l4.65-.728A6.645,6.645,0,0,1,21.9,48.268,6.134,6.134,0,0,1,16.634,50.9Zm12.773-3.249c-.84.056-.168.84-.392,1.232-2.073.224-4.762.728-4.762.392-.28.168-.56.336-.9.5a7.975,7.975,0,0,0,1.849-5.77h.056c.448.28.784.448.784.448s.392-.392.392-.616h0l.5-.056a2.888,2.888,0,0,0,2.577,1.569,2.639,2.639,0,0,0,2.409-1.232,3.716,3.716,0,0,0,.5-1.064c.336-.056,1.345-.112,1.345-.112.056-.28-.28-1.064-1.345-1.232a2.854,2.854,0,0,0-.392-.952l5.77-10.308,1.232,2.521a8.628,8.628,0,0,0-.168,14.342,10.574,10.574,0,0,1-2.129.9C34.393,47.931,32.04,47.763,29.407,47.651Z" transform="translate(0 0)" fill="#3f4a3d"/></g><g transform="translate(369.94 400.292)"><circle cx="3.848" cy="3.848" r="3.848" transform="translate(12.157 0.5)" fill="#3f4a3d"/><path d="M26.529,26.013s-3.747-14.737-4.046-15.883c-.585-2.255-2.526-2.91-4.569-2.053C15.473,9.1,12.76,14.262,12.76,14.262H7.326V10.085a.983.983,0,1,0-1.965,0v4.176a1.474,1.474,0,1,0,0,2.948v18.5a.983.983,0,0,0,1.965,0v-18.5h6.059a1.472,1.472,0,0,0,1.058-.449l1.38-1.425a30.845,30.845,0,0,0,1.536,4.52L13.5,25.329a1.969,1.969,0,0,0-.359,1.132V34.73a1.965,1.965,0,0,0,3.931,0V27.084s3.5-3.812,3.8-3.728c.333.1,1.908,3.842,1.908,3.842a1.9,1.9,0,0,0,.182.469l4.357,8a1.965,1.965,0,1,0,3.453-1.878Z" transform="translate(0 1.221)" fill="#3f4a3d"/><path d="M30.621,11.423l-1.5-5.62a.982.982,0,0,0-1.2-.695l-7.18,1.923a.983.983,0,0,0-.7,1.2l3.094,11.545a.982.982,0,0,0,1.2.695l4.492-1.2a.983.983,0,0,0,.695-1.2l-1.334-4.976,1.74-.465A.983.983,0,0,0,30.621,11.423Z" transform="translate(2.728 0.774)" fill="#3f4a3d"/></g><g transform="translate(462.583 706.809)"><path d="M38.991,59.69,38.87,60Z" transform="translate(-22.491 -44.311)" fill="none"/><path d="M38.66,60.88Z" transform="translate(-22.382 -44.926)" fill="none"/><path d="M11.938,42.842a6.1,6.1,0,0,1-1.672-1.319,4.412,4.412,0,0,1-.884-2.063A9.447,9.447,0,0,0,7.71,42.466a1.45,1.45,0,0,1,.483-.159,1.629,1.629,0,0,1,.271,0,4.064,4.064,0,0,1,1.783.628,5.083,5.083,0,0,0,2.373.778,3.02,3.02,0,0,0,.449-.034,4.209,4.209,0,0,0-1.131-.836Z" transform="translate(-6.387 -33.856)" fill="none"/><path d="M36.968,48.878l.1-.068.15-.1a10.86,10.86,0,0,0,1.251-.821h0a6.973,6.973,0,0,0,2.416-3.257l-2-.763-.343-.13L38.3,43.65h0a.735.735,0,0,0-.077.169l-.029.072-.043.092-.072.155-.087.164-.034.068a4.658,4.658,0,0,1-.85,1.155l-.169.155-.164.106h0q-.167.138-.348.261h0l-.164.111h-.029l-.145.092-.058.039-.121.077-.1.058-.1.063-.159.1a8.127,8.127,0,0,0-1.237.928h0c-.116.106-.232.222-.348.338l-.092.111q-.174.184-.348.387h0c-.116.135-.227.275-.333.425h0a9.355,9.355,0,0,0-.6.913h0q-.121.208-.232.43l-.039.077q-.1.193-.188.4l-.043.092c-.068.159-.135.319-.2.483l3.281.773a18.962,18.962,0,0,1,.788-1.933l.063-.116.039-.068a3.3,3.3,0,0,1,.879-.966Z" transform="translate(-18.884 -36.021)" fill="none"/><path d="M48.513,47.306l-.2-.077-.077-.029h0a.73.73,0,0,0-.077.184l-.029.072-.063.13L48,47.741l-.068.135-.039.068c-.053.1-.111.2-.169.295l-.01.019a4.659,4.659,0,0,1-.382.522l-.063.072-.2.184q-.152.145-.3.275l-.068.053-.213.164c-.309.227-.643.43-1,.643a11.674,11.674,0,0,0-1.242.812h0A6.973,6.973,0,0,0,41.83,54.26l1.532.343.362.077,1.232.256.145.029h.034a3.068,3.068,0,0,0,.13-.343,7.369,7.369,0,0,1,.556-1.194l.043-.068.029-.043.111-.15h0a2.619,2.619,0,0,1,.377-.367h0l.116-.092.063-.043h0c.155-.111.333-.222.546-.353a10.442,10.442,0,0,0,1.976-1.45h0a6.992,6.992,0,0,0,1.585-2.31h0c.048-.116.1-.232.145-.353l-2-.763Z" transform="translate(-24.021 -37.856)" fill="none"/><path d="M90.82,52.64Z" transform="translate(-49.339 -40.667)" fill="#3f4a3d"/><path d="M94.28,56Z" transform="translate(-51.127 -42.404)" fill="#3f4a3d"/><path d="M48.153,41.456a4.006,4.006,0,0,0-1.1-1.227l.039.024-.039-.024-.295-.222.295.222a4.17,4.17,0,0,0-1.45-.585,14.978,14.978,0,0,0-1.933-.29,35.723,35.723,0,0,1-3.948-.445,3.75,3.75,0,0,1-.85-.261,7.7,7.7,0,0,1-.923-.575,6.311,6.311,0,0,0-1.044-.585,5.706,5.706,0,0,0-1.169-.324c-.425-.082-.85-.145-1.271-.242a8.495,8.495,0,0,1-1.194-.377,20.116,20.116,0,0,1-2.252-1.053c-1.479-.792-2.9-1.711-4.315-2.6a9.1,9.1,0,0,0-2.039-1.1,3.136,3.136,0,0,1-.966-.454,6.408,6.408,0,0,1-.71-.609,11.9,11.9,0,0,0-2.822-2.619,3.083,3.083,0,0,0-3.629,1,1.933,1.933,0,0,0-.435,1.5,2.416,2.416,0,0,0,.623,1.237c.618.7,1.483,1.15,2.068,1.88a1.392,1.392,0,0,1,.343,1.049,1.28,1.28,0,0,1-.483.836,4.457,4.457,0,0,1-2.542.686,11.6,11.6,0,0,1-3.044-.266,5.8,5.8,0,0,1-1.15-.372,2.459,2.459,0,0,1-.933-.865c-.338-.483-.633-.966-.966-1.45a1.865,1.865,0,0,0-1-.846,1.338,1.338,0,0,0-.928.348s-1.9,2.17-2.141,3.919l-.295.821a9.959,9.959,0,0,0-.594,2.759s-.483,4.349,1.87,5.571c.285.15.575.28.87.411l.425.188a.314.314,0,0,1,.179.1c0,.063,0,.121,0,.184a2.9,2.9,0,0,0,.237,1.5c.295.449.933.377,1.387.246a2.9,2.9,0,0,0,1.092-.652c.628-.556,1.2-1.218,2.107-1.237a2.778,2.778,0,0,1,.817.121l.227.072a.367.367,0,0,1,.184.155,1.875,1.875,0,0,1,.237.425c.193.483.213,1.121.72,1.387a1.57,1.57,0,0,0,1.648-.2,5.315,5.315,0,0,0,1.14-1.363l.232-.343.106-.121a.633.633,0,0,1,.338-.053c.449-.034.9-.048,1.348-.053.908,0,1.812.043,2.716.126,1.744.159,3.479.454,5.2.749a1.45,1.45,0,0,1,.879.324,1.223,1.223,0,0,1,.251.59,1.232,1.232,0,0,0,.208.561.8.8,0,0,0,.686.208c.517-.058.594-.662.807-1.024a1.556,1.556,0,0,1,.256-.329.266.266,0,0,1,.232-.1h2.353l.092.092a2.662,2.662,0,0,1,.309.42,3.474,3.474,0,0,0,.459.705.817.817,0,0,0,1.155-.024c.657-.614.966-1.677,1.933-1.894a1.556,1.556,0,0,1,.836.048,1.3,1.3,0,0,1,.536.425c.358.42.913,1.15,1.411.507.3-.391.285-.942.546-1.358a1.525,1.525,0,0,1,1.773-.449c.271.077.846.459,1.155.256a1.807,1.807,0,0,0,.536-.686,2.933,2.933,0,0,1,1.522-1.169c.817-.348,1.986-.594,2.324-1.532a1.971,1.971,0,0,0-.256-1.677ZM11.2,37.692a5.083,5.083,0,0,1-2.373-.778,4.064,4.064,0,0,0-1.783-.628,1.628,1.628,0,0,0-.271,0,1.45,1.45,0,0,0-.483.159A9.447,9.447,0,0,1,7.961,33.44a4.412,4.412,0,0,0,.918,2.087,6.1,6.1,0,0,0,1.691,1.319,4.209,4.209,0,0,1,1.1.812A3.02,3.02,0,0,1,11.2,37.692Zm10.181,5.861.121-.314Zm.792-1.836-.039.068-.063.116a18.962,18.962,0,0,0-.788,1.933h0L18,43.06c.063-.169.13-.329.2-.483l.043-.092q.092-.2.188-.4l.039-.077q.111-.222.232-.43h0a9.355,9.355,0,0,1,.6-.913h0c.111-.15.222-.29.333-.425h0q.174-.2.348-.387l.058-.058c.116-.116.232-.232.348-.338h0a8.127,8.127,0,0,1,1.237-.928l.159-.1.135-.13.1-.058.121-.077.058-.039.145-.092h.029l.164-.111h0q.181-.123.348-.261h0l.15-.126.169-.155a4.658,4.658,0,0,0,.85-1.155l.053-.087.068-.135.072-.155.043-.092.048-.1a.734.734,0,0,1,.077-.184h0l.242.092L25,35.7l2,.763a6.973,6.973,0,0,1-2.416,3.257h0c-.42.314-.846.575-1.251.821l-.15.1-.1.068-.039.029a3.3,3.3,0,0,0-.879.986Zm9.485-3.16h0a6.992,6.992,0,0,1-1.517,2.281h0a10.442,10.442,0,0,1-1.976,1.45c-.213.13-.391.242-.546.353h0l-.063.043-.116.092h0a2.619,2.619,0,0,0-.377.367h0l-.111.15-.029.043-.043.068a7.369,7.369,0,0,0-.6,1.218,1.9,1.9,0,0,1-.13.343H26.09l-.145-.029-1.232-.256-.372-.072-1.551-.324a6.973,6.973,0,0,1,2.416-3.276h0c.416-.309.836-.565,1.242-.812s.686-.416,1-.643l.213-.164.068-.058q.159-.13.3-.275l.188-.2.063-.072a4.658,4.658,0,0,0,.411-.522v-.043c.058-.1.116-.193.169-.295l.039-.068.068-.135.082-.13.039-.092.029-.072a.73.73,0,0,1,.058-.2h0l.077.029.2.077.309.121,2,.763A1,1,0,0,1,31.657,38.557Z" transform="translate(-5 -27.86)" fill="#3f4a3d"/><path d="M92.07,53.52l.039.029Z" transform="translate(-49.985 -41.122)" fill="#3f4a3d"/><path d="M91.163,52.84l-.213-.15Z" transform="translate(-49.406 -40.693)" fill="#3f4a3d"/></g><g transform="translate(171 336.911)"><g transform="translate(11 9)"><path d="M21.924,961.362l1.35,1.353-6.3,22.89a9.813,9.813,0,0,0-1.474-.5l4.856-21.8Zm5.244,1.26,1.551,1.555-9.557,22.517c-.434-.25-.856-.48-1.272-.684l6.33-22.968Zm5.818,1.508L33.731,966,21.1,987.906c-.36-.244-.713-.477-1.07-.7l9.619-22.657Zm1.551,2.472,3.894.435,1.738,3.888L23.181,989.415c-.445-.345-.84-.635-1.257-.933Zm6.376,4.976,2.389.4.419,3.281L24.841,990.8c-.288-.254-.58-.512-.884-.762Zm3.4,4.51,2.436.809v2.783l-20.138,12.8c-.315-.336-.666-.657-1.024-1Zm2.9,4.479,2.312,1.151-1.66,2.892L28.285,994.655a10.827,10.827,0,0,0-1.024-1.415Zm-31.99,5.5a21.527,21.527,0,0,1,6.454,3.452,23.3,23.3,0,0,1,5.74,5.614l-2.731,1.944a45.136,45.136,0,0,0-10.643-7.837Zm-1.738,4a44.281,44.281,0,0,1,10.41,7.635c-1.925,2.623-3.681,3.874-5.352,4.152a7.255,7.255,0,0,1-5.321-1.835,6.581,6.581,0,0,1-2.172-5.583,7.039,7.039,0,0,1,2.436-4.37Z" transform="translate(-11 -961.362)" fill="#3f4a3d"/></g></g><g transform="translate(758.204 682.616)"><path d="M35.486,31.1a4.133,4.133,0,0,1,1.775,3.041,3.829,3.829,0,0,1-1.141,3.042s.127.127.761.127c3.549,0,4.436-1.971,4.436-2.662a2.705,2.705,0,0,0-2.028-2.535,6.627,6.627,0,0,1,1.831.188A5.565,5.565,0,0,1,44.9,35.263a4.128,4.128,0,0,1,.471,1.819,4.456,4.456,0,0,1-1.648,3.393c-1.875,1.668-5.323,1.776-5.449,1.776a3.681,3.681,0,0,0,2.662,1.141,10.1,10.1,0,0,0,1.394-.127,6.518,6.518,0,0,1-2.677,1.6,7.915,7.915,0,0,1-2.393.43,6.7,6.7,0,0,1-1.44-.134,5.586,5.586,0,0,1-4.093-3.251,8.113,8.113,0,0,1-.552-2.066A3.138,3.138,0,0,0,30.162,42a3.205,3.205,0,0,0,1.014,2.282c-.146-.06-3.042-.634-3.042-4.69-.013-.651,0-1.177,0-1.775a3.3,3.3,0,0,0-1.3-2.591q-2.067-1.7-4.15-3.39a3.728,3.728,0,0,1-1.552-2.942,2.178,2.178,0,0,0-.972-1.785,12.819,12.819,0,0,1-1.1-.892,1.972,1.972,0,0,1-.51-2.076c.035.029.065.042.069.06a1.968,1.968,0,0,0,1.857,1.449c.478.077.964.111,1.436.211a1.14,1.14,0,0,1,.889.933c.07.3.126.594.195.889A.957.957,0,0,0,24,28.525c.387.024.776.044,1.162.082a2.96,2.96,0,0,1,1.6.685c1.637,1.332,3.281,2.656,4.919,3.986a3.289,3.289,0,0,0,1.9.86,1.965,1.965,0,0,0,2.028-1.9A3.967,3.967,0,0,0,35.486,31.1Z" transform="translate(0.231 0.297)" fill="#3f4a3d"/><path d="M26.226,36.341q-1.732-1.428-3.479-2.841c-.65,1.054-3.152,4.794-6.681,4.794a4.744,4.744,0,0,1-4.179-2.628,6.917,6.917,0,0,1-.761-3.074A9.384,9.384,0,0,1,13.9,25.84a2.164,2.164,0,0,0-1.89.294c-.606.4-1.7,1.092-1.783,1.135-.119,0-.119,0-.119-.129l.38-2.535A10.047,10.047,0,0,0,7.07,27.014c-.761.761-1.376,1.436-1.376,1.436-.4-1.436.235-3.971.359-4.858.073-.517-.127-.507-.127-.507-.254,0-1.011.776-1.391,1.172a9.29,9.29,0,0,0-2.342,4.267c-.079.312-.129.709-.193,1.025.024.008.634-.887,1.141-.887.254,0,.269.388.261.525a2.616,2.616,0,0,1-.152.63,14.675,14.675,0,0,0-.75,4.422,12.792,12.792,0,0,0,.153,2.071,10.255,10.255,0,0,0,.995,3.126A11.332,11.332,0,0,0,5.8,42.351a6.508,6.508,0,0,1-.212-.679,4.127,4.127,0,0,1-.073-.975c.045-.4.4-.493.688-.209a23.437,23.437,0,0,0,2.413,2.039,10.944,10.944,0,0,0,6.058,1.853,13.043,13.043,0,0,0,3.364-.45A11.347,11.347,0,0,0,22.456,41.6a17.17,17.17,0,0,0,3.976-5.059A2.593,2.593,0,0,0,26.226,36.341Zm5.505-14.186a24.12,24.12,0,0,0-5.177,5.439.277.277,0,0,0-.023.041,4.444,4.444,0,0,1,1.3.735c.54.44,1.082.877,1.623,1.316.044-.088.084-.168.12-.242a28.388,28.388,0,0,1,3.748-6.268A5.321,5.321,0,0,1,39.4,21.907a1.324,1.324,0,0,0,.633.162,1.461,1.461,0,0,0,.624-.2,10.426,10.426,0,0,1,4.9-1.175c.339,0,1.061.1,1.061.1a10.9,10.9,0,0,0-2.186-1.684,8.324,8.324,0,0,0-4.151-1.1,15.607,15.607,0,0,0-3.585.633.441.441,0,0,1-.4-.158.482.482,0,0,1,.01-.4A3.452,3.452,0,0,1,37.491,17a6.832,6.832,0,0,0-2.835,1.374c-.54.418-1.077.841-1.621,1.253a1.175,1.175,0,0,1-.373.188c-.358.1-.54-.072-.435-.42a2.239,2.239,0,0,1,.2-.45c.131-.23.279-.451.431-.693a9.594,9.594,0,0,0-4.494,5.72,12.614,12.614,0,0,1,3.929-2.915,11.562,11.562,0,0,1,5.07-1.141s.127.1.127.127a6.162,6.162,0,0,0-1.567.24A12.811,12.811,0,0,0,31.731,22.154Z" transform="translate(0 0.196)" fill="#3f4a3d"/><path d="M16.929,11.254a4.5,4.5,0,0,0,.279,1.433,7.29,7.29,0,0,0,1.926,2.8c.813.8,1.672,1.546,2.5,2.326a7.773,7.773,0,0,1,2,2.724,3.587,3.587,0,0,1,.27,1.884.277.277,0,0,0,.2.338,1.018,1.018,0,0,1,.7.928c.01.218.146.184.277.116a2.941,2.941,0,0,0,1.106-1.011,1.439,1.439,0,0,1,.127.634c-.012,1.365-1.222,3.6-2.361,4.051.015-.1.026-.179.041-.26a1.637,1.637,0,0,0-1.169-1.933,5.2,5.2,0,0,0-1.709-.212c-.1,0-.362,0-.507,0,.048-.11.4-.835.477-1.116a.554.554,0,0,0-.445-.777,6.247,6.247,0,0,0-1.364-.158,13.439,13.439,0,0,0-3.1.377c-.142.034-.371.107-.51.153a7.845,7.845,0,0,1,2.028.38,4.987,4.987,0,0,0-.507,1.648c0,.507.254.887.507.887a.812.812,0,0,0,.51-.254c-.023.138-.163.867-.183,1.21-.029.538.183.818.816.818h.38c-.254.887-2.162,2.055-3.3,2.028a1.246,1.246,0,0,1-.211-.022,2.7,2.7,0,0,0,1.164-1.5l-1.513.193a8.661,8.661,0,0,0,.681-.967,2.262,2.262,0,0,0-.091-2.49,2.751,2.751,0,0,0-2.058-1.044,4.962,4.962,0,0,0-2.028.38,5.261,5.261,0,0,1,2.662-2.662,7.045,7.045,0,0,0-2.028-.634,12.939,12.939,0,0,1,3.676-1.394c-.127,0-.443,0-.507,0-3.8,0-5.292,1.965-5.324,2.028a9.606,9.606,0,0,1,1.775.38A13.862,13.862,0,0,0,7.042,25.2a5.37,5.37,0,0,0,.38-1.648c0-2.662-3.371-2.128-3.422-2.155a14.373,14.373,0,0,1,2.9-1.668c.4-.217,1.533-.74,1.533-1.374,0-.887-1.759-2.18-1.9-2.282a13.141,13.141,0,0,1,3.3.38,4.05,4.05,0,0,1-.493-3.131,5.313,5.313,0,0,0,1.809,1.947c.7.459,1.429.864,2.141,1.3a18.32,18.32,0,0,1,1.6,1.019,9.551,9.551,0,0,1,1.022,1.042c.056.059.1.128.151.192l.087-.043c-.08-.2-.144-.408-.242-.6A4.953,4.953,0,0,0,14.187,16.3a1.087,1.087,0,0,1-.52-.764,7.755,7.755,0,0,1,.011-2.89A9.4,9.4,0,0,1,14.394,11v.127a5.323,5.323,0,0,0,1.394,3.422,35.4,35.4,0,0,0,3.059,2.768,23.294,23.294,0,0,1,2.645,2.809,2.677,2.677,0,0,0-.083-.287,8.672,8.672,0,0,0-2.14-2.817c-.761-.712-1.533-1.413-2.307-2.111a1.44,1.44,0,0,1-.49-.923A5.227,5.227,0,0,1,16.929,11.254Zm2.282,8.873a3.642,3.642,0,0,0,.2.753,2.438,2.438,0,0,0,1.826,1.275s0-.887-1.268-1.775A1.407,1.407,0,0,0,19.21,20.126Z" transform="translate(0.028 0.112)" fill="#3f4a3d"/><path d="M8.014,12.76A11.247,11.247,0,0,1,9.028,10.1,9.9,9.9,0,0,0,10.3,12.76a6.482,6.482,0,0,0,1.535,1.518c.116.076.232.151.351.225a8.736,8.736,0,0,1,.161-2,8.231,8.231,0,0,1,.74-1.809v-.087a3.326,3.326,0,0,1,3.043-3.549,3.325,3.325,0,0,1,3.042,3.549,7.67,7.67,0,0,1-.275,2.535c-.014.038-.028.072-.043.107a6.28,6.28,0,0,0,.472.654l.031.04a9.28,9.28,0,0,0,.659.714c.478.467.99.935,1.484,1.386.335.305.669.61,1,.921.08.075.144.149.22.224a9.18,9.18,0,0,0,2.537-6.074C25.252,6.042,21.167,3,16.126,3S7,6.169,7,11.112a8.45,8.45,0,0,0,.877,3.63A9.076,9.076,0,0,1,8.014,12.76Z" transform="translate(0.07)" fill="#3f4a3d"/></g><g transform="translate(211.419 620.079) rotate(42)"><path d="M99.543,68.377c4.933-.183,14.38-.652,7.282-13.859a5.09,5.09,0,0,1,.522-4.88c1.514-1.8.966-5.637-.365-7.1-.13,1.67.235,6.238-3.5,6.081a2.673,2.673,0,0,1-2.532-2.636c-.026-1.879-.418-30.04-.418-30.51a9.842,9.842,0,0,1,1.227-2.271l-.418-9a4.6,4.6,0,0,0-1.775,1.383c-.522.835-2.245,7.8-2.375,8.691s.887,1.018.887,1.018-.47,28.4-.47,28.865S92.1,49.247,92.339,38.52c-1.253,1.984-2.4,5.115,0,9.735.339.652-.052,4.88-.7,6.159-.652,1.253-4.411,8.8.026,11.849C92.653,66.968,94.819,68.534,99.543,68.377Z" transform="translate(0)" fill="#3f4a3d"/><path d="M235.5,190.3" transform="translate(-107.875 -137.53)" fill="#3f4a3d" stroke="#060000" stroke-miterlimit="10" stroke-width="1"/></g><g transform="translate(516.324 973.386)"><path d="M7.132,43.627V12.521c4.133,1.8,7.954,2.044,8.654.511s-2.222-4.51-6.5-6.51-8.432-2.3-9.176-.7c-.655,1.422,1.6,3.9,5.188,5.866V43.627L2.744,45.849a.922.922,0,1,0,1.2,1.389l2.222-1.966,2.222,1.966a.933.933,0,0,0,1.3-.089.922.922,0,0,0-.089-1.3Z" transform="translate(0)" fill="#3f4a3d"/><path d="M45.058,43.375l-2.011-1.289V29H41.536V42.109L39.525,43.4a.755.755,0,0,0-.233,1.044.767.767,0,0,0,1.044.233l1.977-1.233L44.269,44.7a.789.789,0,0,0,.411.111.755.755,0,0,0,.4-1.389Z" transform="translate(4.346 2.685)" fill="#3f4a3d"/><path d="M37.394,28.011H47.937A1.389,1.389,0,0,0,49.326,27H36.05A1.411,1.411,0,0,0,37.394,28.011Z" transform="translate(3.999 2.463)" fill="#3f4a3d"/><path d="M36.1,26.3H49.32a1.411,1.411,0,0,0-1.333-1H37.433a1.389,1.389,0,0,0-1.333,1Z" transform="translate(4.005 2.274)" fill="#3f4a3d"/><path d="M32.925,25.351A11.85,11.85,0,0,0,16.072,42.015L14.494,43.5a.878.878,0,0,0,.1,1.211.867.867,0,0,0,1.2.167l1.689-1.655a11.854,11.854,0,0,0,14.12,0l1.711,1.6a.867.867,0,0,0,1.2-.167.855.855,0,0,0,.1-1.211l-1.578-1.433a11.831,11.831,0,0,0-.111-16.664ZM31.447,40.627A9.721,9.721,0,1,1,34.3,33.739,9.721,9.721,0,0,1,31.447,40.627Z" transform="translate(1.403 1.89)" fill="#3f4a3d"/><path d="M24.221,25a8.443,8.443,0,1,0,8.465,8.388A8.443,8.443,0,0,0,24.221,25Z" transform="translate(1.753 2.241)" fill="#3f4a3d"/><path d="M39.615,17.289a.367.367,0,0,0-.289-.444L27.305,14.4a.378.378,0,0,0-.444.289l-.311,1.544,12.72,2.544Z" transform="translate(2.945 1.065)" fill="#3f4a3d"/><rect width="4.588" height="4.21" transform="matrix(0.195, -0.981, 0.981, 0.195, 32.78, 23.397)" fill="#3f4a3d"/><path d="M37.489,23.2l.822-4.133L35.09,18.42l-.9,4.444,2.855.567A.355.355,0,0,0,37.489,23.2Z" transform="translate(3.793 1.511)" fill="#3f4a3d"/><path d="M26.03,21.287l2.844.567.9-4.5-3.222-.644-.822,4.144A.378.378,0,0,0,26.03,21.287Z" transform="translate(2.854 1.322)" fill="#3f4a3d"/><path d="M8.443,17.289l.311,1.544,12.753-2.6L21.2,14.69a.367.367,0,0,0-.444-.289L8.743,16.789a.367.367,0,0,0-.3.5Z" transform="translate(0.934 1.064)" fill="#3f4a3d"/><rect width="4.21" height="4.588" transform="matrix(0.981, -0.195, 0.195, 0.981, 14.146, 19.711)" fill="#3f4a3d"/><path d="M8.85,19.057,9.672,23.2a.367.367,0,0,0,.455.3l2.844-.567-.9-4.444Z" transform="translate(0.982 1.519)" fill="#3f4a3d"/><path d="M18.33,21.854l2.844-.567a.378.378,0,0,0,.3-.433l-.822-4.144-3.222.644Z" transform="translate(1.934 1.322)" fill="#3f4a3d"/></g><g transform="translate(170.103 116.678)"><path d="M57.533,20.563H28.12c-2.554,0-4.553,1.669-4.553,3.8V55.934c0,2.13,2,3.8,4.553,3.8h5.6a5.047,5.047,0,0,0,3.153-1.044,5.042,5.042,0,0,0,3.15,1.044h5.6a5.043,5.043,0,0,0,3.152-1.044,5.048,5.048,0,0,0,3.152,1.044h5.6c2.554,0,4.554-1.668,4.554-3.8V24.363C62.088,22.232,60.087,20.563,57.533,20.563ZM35.166,56.593c0,.48-.8,1.037-1.823,1.037H27.507c-1.027,0-1.822-.557-1.822-1.037V23.7c0-.48.8-1.037,1.822-1.037h4.967v18a2.4,2.4,0,0,0,2.5,2.268h.19V56.593Zm12.4,0c0,.482-.8,1.039-1.823,1.039H39.908c-1.026,0-1.821-.557-1.821-1.037V42.938h.018a2.394,2.394,0,0,0,2.5-2.268v-18h4.269v18a2.394,2.394,0,0,0,2.5,2.268h.19V56.591Zm12.4,0c0,.482-.8,1.038-1.823,1.038H52.311c-1.026,0-1.82-.557-1.82-1.038V42.938h.018a2.4,2.4,0,0,0,2.5-2.268v-18h5.136c1.027,0,1.823.558,1.823,1.037V56.591Z" fill="#3f4a3d"/></g><g transform="translate(65.146 776.227)"><path d="M7,5.182v20.98a.581.581,0,0,0,.461.567,21.975,21.975,0,0,1,6.016,2.234,20.779,20.779,0,0,1,2.506,1.643.3.3,0,0,0,.473-.236V6.659a.633.633,0,0,0-.272-.508,14.9,14.9,0,0,0-1.6-.886A17.049,17.049,0,0,0,8.194,4,1.173,1.173,0,0,0,7,5.182Z" transform="translate(0.91 0)" fill="#3f4a3d"/><path d="M26.456,26.172V5.18a1.156,1.156,0,0,0-1.194-1.17A16.53,16.53,0,0,0,18.868,5.3a13.089,13.089,0,0,0-1.6.886A.518.518,0,0,0,17,6.658V30.392a.29.29,0,0,0,.473.225,21,21,0,0,1,8.522-3.877A.591.591,0,0,0,26.456,26.172Z" transform="translate(2.729 0.002)" fill="#3f4a3d"/><path d="M6.586,28.444a1.225,1.225,0,0,1-1.04-1.17V6.317a.3.3,0,0,0-.319-.307A3.566,3.566,0,0,0,2,9.544V28.456A3.549,3.549,0,0,0,5.546,32h9.787a18.2,18.2,0,0,0-2.08-1.324A19.749,19.749,0,0,0,6.586,28.444Z" transform="translate(0 0.366)" fill="#3f4a3d"/><path d="M28.507,6.317V27.274a1.225,1.225,0,0,1-1.04,1.17A19.729,19.729,0,0,0,20.8,30.666a19.979,19.979,0,0,0-2.08,1.324h9.787a3.541,3.541,0,0,0,3.546-3.546V9.544A3.566,3.566,0,0,0,28.826,6.01.3.3,0,0,0,28.507,6.317Z" transform="translate(3.042 0.366)" fill="#3f4a3d"/></g><g transform="translate(771.512 295.429)"><g transform="translate(11.001 27.982)"><path d="M45.031,980.349a2.283,2.283,0,0,0-1.949,1.485l-10.4,28.217a2.228,2.228,0,1,0,4.177,1.555l10.4-28.218a2.228,2.228,0,0,0-2.228-3.04Zm-15.385,2.228a2.674,2.674,0,0,0-1.276.394l-16.336,10.4a2.228,2.228,0,0,0,0,3.759l16.336,10.4a2.228,2.228,0,1,0,2.39-3.759L17.37,995.247l13.389-8.516a2.228,2.228,0,0,0-1.114-4.154ZM50.3,982.6a2.228,2.228,0,0,0-1.137,4.13l13.389,8.516-13.389,8.516a2.228,2.228,0,1,0,2.39,3.759l16.336-10.4a2.228,2.228,0,0,0,0-3.759l-16.336-10.4A2.245,2.245,0,0,0,50.3,982.6Z" transform="translate(-11.001 -980.344)" fill="#3f4a3d"/></g></g><path d="M228.512-57.7" fill="none" stroke="#707070" stroke-width="1"/><path d="M464.477,54.417,434.708,37.781S367.98.971,354.606-67.607" transform="translate(-26 14.012)" fill="none" stroke="#2e3336" stroke-linecap="round" stroke-width="2" stroke-dasharray="10"/></g></g></svg>