<?xml version="1.0" encoding="utf-8"?>
<!-- Generator: Adobe Illustrator 26.0.1, SVG Export Plug-In . SVG Version: 6.00 Build 0)  -->
<svg version="1.2" baseProfile="tiny" id="Layer_1" xmlns="http://www.w3.org/2000/svg" xmlns:xlink="http://www.w3.org/1999/xlink"
	 x="0px" y="0px" viewBox="0 0 2514 2000" overflow="visible" xml:space="preserve">
<path id="_x3C_Path_x3E_" fill="#7C6294" d="M1784.92,1504.42l-35.43-19.67c-179.57-99.69-348.69-159.99-536.03-75.8
	c-56.12,25.22-118.35,39.25-183.86,39.25c-240.91,0-437.5-189.73-448.51-427.92l-0.36-21.08c5.77-250.12,218.49-459.47,472.35-446.4
	c1.03,0.05,2.05,0.06,3.07,0.04c55.84,3.29,108.95,16.63,157.48,38.44c187.34,84.2,356.45,23.89,536.03-75.8l35.43-19.67
	c38.42-21.33,70.88-54.5,44.68-89.78c-124-167-455.49-406-800-406c-540.59,0-980.98,428.95-999.4,965.05
	c-0.28,8.23-0.47,16.48-0.55,24.75c0,0-0.06,0.87-0.16,2.52c-1.2,20.54-7.43,163,41.55,294.13
	c123.12,412.77,505.61,713.71,958.4,713.71c344.51,0,676-239,800-406C1855.81,1558.92,1823.34,1525.75,1784.92,1504.42z
	 M79.17,1307.25c0-0.24,0.01-0.48,0.01-0.72c0.09,0.22,0.18,0.44,0.28,0.66L79.17,1307.25z"/>
<path fill="#987AB5" d="M79.28,693.07C16.96,839.93,29.66,1010.4,29.66,1010.4C20,1542,472,2000,1029.61,2000.21
	c344.51,0.13,676-239,800-406c26.2-35.28-6.26-68.46-44.68-89.78l-35.43-19.67c-179.57-99.69-348.69-159.99-536.03-75.8
	c-56.12,25.22-118.35,39.13-183.86,39.25C607,1449,79,1189,79,693"/>
<path fill="#987AB5" d="M2038.25,1501.38c-8.41,0.67-13.2-10.09-7.7-17.28c36.87-48.17,140.71-189.76,266.98-153.55
	c108.95,31.25,172.01,0.08,201.61-22.38c6.99-5.3,16.14,1.02,14.75,10.18c-11.74,77.25-100.6,249.39-267.54,196.84
	C2093.38,1467.05,2076.22,1498.35,2038.25,1501.38z"/>
</svg>
