<svg id="Layer_1" data-name="Layer 1" xmlns="http://www.w3.org/2000/svg" viewBox="0 0 2485.44 2000.16"><defs><style>.cls-1{fill:#768638;}.cls-2{fill:#899c40;}</style></defs><path id="_Path_" data-name="&lt;Path&gt;" class="cls-1" d="M1784.92,1504.42l-35.43-19.67c-179.57-99.69-348.68-160-536-75.79a447.4,447.4,0,0,1-183.86,39.25c-240.91,0-437.51-189.73-448.52-427.92l-.36-21.08c5.77-250.13,218.49-459.48,472.35-446.4,1,.05,2.05.06,3.08,0a447.69,447.69,0,0,1,157.48,38.44c187.34,84.2,356.45,23.9,536-75.8l35.43-19.66c38.42-21.33,70.88-54.51,44.69-89.79-124-167-455.5-406-800-406C489.19,0,48.79,429,30.38,965.1q-.42,12.33-.55,24.75s-.07.87-.16,2.52c-1.21,20.54-7.44,163,41.54,294.13,123.12,412.77,505.61,713.71,958.4,713.71,344.5,0,676-239,800-406C1855.81,1558.92,1823.34,1525.75,1784.92,1504.42ZM79.17,1307.25v-.73c.1.22.19.44.28.66Z" transform="translate(-28.59 -0.04)"/><path class="cls-2" d="M79.28,693.07C17,839.93,29.66,1010.4,29.66,1010.4,20,1542,472,2000,1029.61,2000.21c344.5.12,676-239,800-406,26.2-35.29-6.27-68.46-44.69-89.79l-35.43-19.67c-179.57-99.69-348.68-160-536-75.79a449.49,449.49,0,0,1-183.86,39.25C607,1449,79,1189,79,693" transform="translate(-28.59 -0.04)"/><path class="cls-2" d="M2038.25,1501.38c-8.42.67-13.2-10.09-7.7-17.28,36.87-48.17,140.71-189.76,267-153.55,108.95,31.25,172,.08,201.61-22.38,7-5.3,16.14,1,14.75,10.18-11.75,77.25-100.6,249.39-267.54,196.84C2093.38,1467.05,2076.22,1498.35,2038.25,1501.38Z" transform="translate(-28.59 -0.04)"/></svg>